/* XPM */
static char *a35a95cb8f344fcde01cfcd8af9b8e69[] = {
/* columns rows colors chars-per-pixel */
"120 60 189 2 ",
"   c None",
".  c #609094",
"X  c #619195",
"o  c #629195",
"O  c #629196",
"+  c #639296",
"@  c #649296",
"#  c #649397",
"$  c #659397",
"%  c #669397",
"&  c #669497",
"*  c #669498",
"=  c #679498",
"-  c #689599",
";  c #699599",
":  c #699699",
">  c #6A969A",
",  c #6B969A",
"<  c #6B979B",
"1  c #6C979B",
"2  c #6D989B",
"3  c #6D989C",
"4  c #6E989C",
"5  c #6E999C",
"6  c #6F999D",
"7  c #709A9D",
"8  c #719A9E",
"9  c #739B9F",
"0  c #749C9F",
"q  c #749CA0",
"w  c #759CA0",
"e  c #759DA0",
"r  c #769DA1",
"t  c #779EA1",
"y  c #779EA2",
"u  c #789EA2",
"i  c #789FA2",
"p  c #7A9FA3",
"a  c #7BA0A4",
"s  c #7DA1A5",
"d  c #7DA2A5",
"f  c #7EA2A5",
"g  c #7FA3A6",
"h  c #80A3A6",
"j  c #81A4A7",
"k  c #82A4A7",
"l  c #82A4A8",
"z  c #86A7AA",
"x  c #87A7AA",
"c  c #88A8AB",
"v  c #89A8AB",
"b  c #89A9AC",
"n  c #8AA9AC",
"m  c #8BAAAD",
"M  c #8CAAAD",
"N  c #8CABAE",
"B  c #8EABAE",
"V  c #90ADAF",
"C  c #90ADB0",
"Z  c #91ADB0",
"A  c #92AEB1",
"S  c #93AFB2",
"D  c #94AFB2",
"F  c #95B0B2",
"G  c #95B0B3",
"H  c #96B1B3",
"J  c #97B1B3",
"K  c #97B1B4",
"L  c #98B2B4",
"P  c #99B2B5",
"I  c #9AB3B6",
"U  c #9BB3B6",
"Y  c #9CB4B7",
"T  c #9DB5B7",
"R  c #A0B6B8",
"E  c #A0B6B9",
"W  c #A1B7B9",
"Q  c #A1B7BA",
"!  c #A2B7BA",
"~  c #A4B9BB",
"^  c #A5B9BB",
"/  c #A5B9BC",
"(  c #A6BABC",
")  c #A7BABD",
"_  c #A7BBBD",
"`  c #A8BBBD",
"'  c #A8BBBE",
"]  c #A9BCBE",
"[  c #AABCBE",
"{  c #AABCBF",
"}  c #ABBDBF",
"|  c #ACBEC0",
" . c #ADBEC0",
".. c #AEBFC1",
"X. c #AFBFC1",
"o. c #B1C0C2",
"O. c #B1C1C2",
"+. c #B2C1C3",
"@. c #B2C2C3",
"#. c #B3C2C3",
"$. c #B3C2C4",
"%. c #B4C2C4",
"&. c #B4C3C4",
"*. c #B5C3C5",
"=. c #B6C3C5",
"-. c #B6C4C5",
";. c #B7C4C6",
":. c #B8C5C6",
">. c #B8C5C7",
",. c #B9C5C7",
"<. c #B9C6C7",
"1. c #BBC7C8",
"2. c #BCC7C9",
"3. c #BDC8C9",
"4. c #BEC8CA",
"5. c #BEC9CA",
"6. c #BFC9CA",
"7. c #C0C9CB",
"8. c #C0CACB",
"9. c #C3CBCD",
"0. c #C4CCCD",
"q. c #C5CCCE",
"w. c #C6CDCE",
"e. c #C6CDCF",
"r. c #C8CED0",
"t. c #C8CFD0",
"y. c #C9CFD0",
"u. c #CAD0D1",
"i. c #CBD0D1",
"p. c #CCD1D2",
"a. c #CED2D3",
"s. c #CFD2D3",
"d. c #CFD3D4",
"f. c #D0D3D4",
"g. c #D2D4D5",
"h. c #D3D5D6",
"j. c #D4D5D6",
"k. c #D4D6D6",
"l. c #D4D6D7",
"z. c #D5D6D7",
"x. c #D6D7D8",
"c. c #D7D7D8",
"v. c #D7D8D9",
"b. c #D8D8D9",
"n. c #DAD9DA",
"m. c #DCDADB",
"M. c #DDDBDC",
"N. c #DEDBDC",
"B. c #DEDCDC",
"V. c #DFDCDD",
"C. c #E0DCDD",
"Z. c #E0DDDE",
"A. c #E1DDDE",
"S. c #E1DEDE",
"D. c #E2DEDF",
"F. c #E3DFDF",
"G. c #E4DFE0",
"H. c #E5E0E0",
"J. c #E6E0E1",
"K. c #E6E1E1",
"L. c #E7E1E1",
"P. c #E7E1E2",
"I. c #E9E2E2",
"U. c #E9E2E3",
"Y. c #EAE3E3",
"T. c #EBE3E4",
"R. c #EBE4E4",
"E. c #ECE4E4",
"W. c #ECE4E5",
"Q. c #EDE4E5",
"!. c #EDE5E5",
"~. c #EEE5E5",
"^. c #EEE5E6",
"/. c #EFE6E6",
"(. c #F0E6E6",
"). c #F0E6E7",
"_. c #F0E7E7",
"`. c #F1E7E7",
"'. c #F2E8E8",
"]. c #F3E8E8",
"[. c #F3E8E9",
"{. c #F4E9E9",
"}. c #F5E9E9",
"|. c #F5EAEA",
" X c #F6EAEA",
".X c #F7EAEA",
"XX c #F7EBEA",
"oX c #F7EBEB",
"OX c #F8EBEB",
/* pixels */
"                                                                                                                                                                                                                                                ",
"                                                                                                                                                                                                                                                ",
"                                                                                                                                                                                                                                                ",
"                                                                                                                                                                                                                                                ",
"                                                                                                                                                                                                                                                ",
"                                                                                                                                                                                                                                                ",
"                                                                                                                                                                                                                                                ",
"                                                                                                                                                                                                                                                ",
"                                                                            X + $ * % @ o o                                                                                                                                                     ",
"                                                                    o , a Z ^ &.3.9.8.;.( b 4 +                                                                                                                                                 ",
"                                                                * g ( p.J.].oXOXOXOXOXOXoX(.h.J ;                                                                                                                                               ",
"                                                              a $.K..XOXoX X X X X X X X X XOX`.@.<                                                                                                                                             ",
"                                                            K n.oXoX X X X X X X X X X X X X X.X{.' @ o o X X                                                                                                                                   ",
"                                                          _ I.OX X X X X X X X X X X X X X X X XoXY.O.[ / I b r - o                 . o + $ = - - = $ @ o X o                                                                                   ",
"                                                        A H.OX X X X X X X X X X X X X X X X X X X.XOXOXoX X_.D.e.Y q @       % 8 k G ) *.5.0.y.y.0.6.=.) F j 7 % o                                                                             ",
"                                                    = t 7.oX X X X X X X X X X X X X X X X X X X X X X X X X XoXOX}.M.( 9 r P 3.n.E.{.oXOXOXOXOXOXOXOXOXoX{.E.n.4.L e @ +                                                                       ",
"                                                  z 2.D.{. X X X X X X X X X X X X X X X X X X X X X X X X X X X X XOX|.n.B.{.OXOX.X X X X X X X X X X X X X.XOXOX}.V.| r O @ , 5 < $ o                                                         ",
"                                                ( K.OXoX X X X X X X X X X X X X X X X X X X X X X X X X X X X X X X X XOXoX X X X X X X X X X X X X X X X X X X X XoXXXm.! +.d.b.g.<.m -                                                       ",
"                                               .!.oX X X X X X X X X X X X X X X X X X X X X X X X X X X X X X X X X X X X X X X X X X X X X X X X X X X X X X X X X X XoX XOXOXOXOXOX^.>.8                                                     ",
"                                            S F.oX X X X X X X X X X X X X X X X X X X X X X X X X X X X X X X X X X X X X X X X X X X X X X X X X X X X X X X X X X X X X X X X X X X.XoX8.2                                                   ",
"                                            %.XX X X X X X X X X X X X X X X X X X X X X X X X X X X X X X X X X X X X X X X X X X X X X X X X X X X X X X X X X X X X X X X X X X X X X X}.! +                                                 ",
"                                      o 8 Z V.oX X X X X X X X X X X X X X X X X X X X X X X X X X X X X X X X X X X X X X X X X X X X X X X X X X X X X X X X X X X X X X X X X X X X X XOXb.e                                                 ",
"                                    t ~ x.`..X X X X X X X X X X X X X X X X X X X X X X X X X X X X X X X X X X X X X X X X X X X X X X X X X X X X X X X X X X X X X X X X X X X X X X X X^.D                                                 ",
"                                5 T n. XOX X X X X X X X X X X X X X X X X X X X X X X X X X X X X X X X X X X X X X X X X X X X X X X X X X X X X X X X X X X X X X X X X X X X X X X X X X{.}                                                 ",
"                                2.'.OX X X X X X X X X X X X X X X X X X X X X X X X X X X X X X X X X X X X X X X X X X X X X X X X X X X X X X X X X X X X X X X X X X X X X X X X X X X X{.=.                                                ",
"                              w.}..X X X X X X X X X X X X X X X X X X X X X X X X X X X X X X X X X X X X X X X X X X X X X X X X X X X X X X X X X X X X X X X X X X X X X X X X X X X X X'.                                                  ",
"                            ! /..X X X X X X X X X X X X X X X X X X X X X X X X X X X X X X X X X X X X X X X X X X X X X X X X X X X X X X X X X X X X X X X X X X X X X X X X X X X X X.X!.                                                  ",
"                            $.OX X X X X X X X X X X X X X X X X X X X X X X X X X X X X X X X X X X X X X X X X X X X X X X X X X X X X X X X X X X X X X X X X X X X X X X X X X X X X XoX,.#                                                 ",
"                          + %.OX X X X X X X X X X X X X X X X X X X X X X X X X X X X X X X X X X X X X X X X X X X X X X X X X X X X X X X X X X X X X X X X X X X X X X X X X X X X X X Xp.s +                                               ",
"                          o A '. X X X X X X X X X X X X X X X X X X X X X X X X X X X X X X X X X X X X X X X X X X X X X X X X X X X X X X X X X X X X X X X X X X X X X X X X X X X X X XOXN.v +                                             ",
"                          # , 8.oX X X X X X X X X X X X X X X X X X X X X X X X X X X X X X X X X X X X X X X X X X X X X X X X X X X X X X X X X X X X X X X X X X X X X X X X X X X X X X XOXV.g                                             ",
"                            @ 9 q.{. X X X X X X X X X X X X X X X X X X X X X X X X X X X X X X X X X X X X X X X X X X X X X X X X X X X X X X X X X X X X X X X X X X X X X X X X X X X X X XOX8.>                                           ",
"                              @ 2 1..X X X X X X X X X X X X X X X X X X X X X X X X X X X X X X X X X X X X X X X X X X X X X X X X X X X X X X X X X X X X X X X X X X X X X X X X X X X X X X.XI.c                                           ",
"                                o } OX X X X X X X X X X X X X X X X X X X X X X X X X X X X X X X X X X X X X X X X X X X X X X X X X X X X X X X X X X X X X X X X X X X X X X X X X X X X X X X[._                                           ",
"                                @ :.OX X X X X X X X X X X X X X X X X X X X X X X X X X X X X X X X X X X X X X X X X X X X X X X X X X X X X X X X X X X X X X X X X X X X X X X X X X X X X X X{.-.                                          ",
"                                + *.OX X X X X X X X X X X X X X X X X X X X X X X X X X X X X X X X X X X X X X X X X X X X X X X X X X X X X X X X X X X X X X X X X X X X X X X X X X X X X X X].                                            ",
"                                o ~ oX X X X X X X X X X X X X X X X X X X X X X X X X X X X X X X X X X X X X X X X X X X X X X X X X X X X X X X X X X X X X X X X X X X X X X X X X X X X X X X}.                                            ",
"                                o x /..X X X X X X X X X X X X X X X X X X X X X X X X X X X X X X X X X X X X X X X X X X X X X X X X X X X X X X X X X X X X X X X X X X X X X X X X X X X X X X                                              ",
"                                @ 1 a.OX X X X X X X X X X X X X X X X X X X X X X X X X X X X X X X X X X X X X X X X X X X X X X X X X X X X X X X X X X X X X X X X X X X X X X X X X X X.X X}.                                              ",
"                                  + N E.oX X X X X X X X X X X X X X X X X X X X X X X X X X X X X X X X X X X X X X X X X X X X X X X X X X X X X X X X X X X X X X X X X X X X X X X X XOX~.v.                                                ",
"                                  $ % Q W.OXoX.XoXOX X X X X X X X X X X X X X X X X X X X X X X X X X X X X X X X X X X X X X X X X X X X X X X X X X X X X X X X X X X X X X.XXXoXOXOX~.d.}                                                   ",
"                                    $ & B p.L.E.D.z.]. X X X X X X X X X X X X X X X X X X X X X X X X X X X X X X X X X X X X X X X X X X X X X X X X X X X X X X X X X X X/.Q.I.S.f.$.C                                                       ",
"                                      $ + > p j t 0 k.OX X X X X X X X X X X X X X X X X X X X X X X X X X X X X X X X X X X X X X X X X X X X X X X X X X X X X X X X X X].W h s t 3                                                           ",
"                                                  + n H.OX X X X X X X X X X X X X X X X X X X X X X X X X X X X X X X X X X X X X X X X X X X X XoXoX X X X X X X X X X X].                                                                    ",
"                                                  $ # b b.oXoX X X X X X X X X X X XoXoX'.oXOX.X X X X X X X XoXOXoX X X X X X X X X X X X X X XoXA.Z.OX X X X X X X XoX X                                                                      ",
"                                                    $ + e X.C.{.OXOXoXoX.XoXoXOXOX|.G.,.V ..h.U.]..XOXOXoX X).A.t.B.OX X X X X X X X X X X X XoXQ.N h u._.OXOXOXOXOX}.S.l.                                                                      ",
"                                                        @ # w H 1.j.A.L.Y.P.D.x.7.E k = o @ 1 s C R ` { / U m u = l c.OXoX X X X X X X X X.XoXR.  @ + < M o.e.s.i.2.W c                                                                         ",
"                                                            + o $ 1 q p d a r 6 =             O o X o o X       $ @ t =.P.oXOXOXoXoXoXOXOXT.r.        # O + = > : $                                                                             ",
"                                                                                                                    @ % f ] p.N.H.H.V.d.#.C                                                                                                     ",
"                                                                                                                        + + ; 8 y i q 2                                                                                                         ",
"                                                                                                                                                                                                                                                ",
"                                                                                                                                                                                                                                                ",
"                                                                                                                                                                                                                                                ",
"                                                                                                                                                                                                                                                ",
"                                                                                                                                                                                                                                                ",
"                                                                                                                                                                                                                                                ",
"                                                                                                                                                                                                                                                ",
"                                                                                                                                                                                                                                                ",
"                                                                                                                                                                                                                                                ",
"                                                                                                                                                                                                                                                "
};
