/* XPM */
static char *_b4bb6ab5b8840e7e800415635f0c049[] = {
/* columns rows colors chars-per-pixel */
"120 60 183 2 ",
"   c None",
".  c gold",
"X  c #FFD701",
"o  c #FFD702",
"O  c #FFD703",
"+  c #FFD704",
"@  c #FFD705",
"#  c #FFD706",
"$  c #FFD806",
"%  c #FFD807",
"&  c #FFD809",
"*  c #FFD80A",
"=  c #FED80B",
"-  c #FFD80B",
";  c #FFD80C",
":  c #FED80E",
">  c #FED80F",
",  c #FFD80F",
"<  c #FED810",
"1  c #FFD810",
"2  c #FED811",
"3  c #FFD911",
"4  c #FED812",
"5  c #FED913",
"6  c #FFD913",
"7  c #FED914",
"8  c #FED915",
"9  c #FED917",
"0  c #FED919",
"q  c #FED91A",
"w  c #FED91B",
"e  c #FED91C",
"r  c #FED91D",
"t  c #FEDA1D",
"y  c #FED91E",
"u  c #FEDA1F",
"i  c #FEDA21",
"p  c #FEDA22",
"a  c #FEDA23",
"s  c #FEDA24",
"d  c #FDDA26",
"f  c #FEDA26",
"g  c #FDDA2A",
"h  c #FDDB2A",
"j  c #FDDB2B",
"k  c #FDDB2C",
"l  c #FDDB2D",
"z  c #FDDB31",
"x  c #FDDB32",
"c  c #FDDB34",
"v  c #FDDB35",
"b  c #FDDC35",
"n  c #FDDB38",
"m  c #FDDC39",
"M  c #FDDC3A",
"N  c #FDDC3B",
"B  c #FDDC3C",
"V  c #FDDC3D",
"C  c #FDDC3E",
"Z  c #FDDC41",
"A  c #FCDC44",
"S  c #FCDD45",
"D  c #FCDD49",
"F  c #FCDD4A",
"G  c #FCDD4C",
"H  c #FCDD50",
"J  c #FCDE51",
"K  c #FCDE52",
"L  c #FCDE53",
"P  c #FCDE54",
"I  c #FCDE55",
"U  c #FCDE56",
"Y  c #FCDE58",
"T  c #FBDF5E",
"R  c #FBDF5F",
"E  c #FCDF5D",
"W  c #FBDF60",
"Q  c #FBDF61",
"!  c #FBDF62",
"~  c #FBDF63",
"^  c #FBDF66",
"/  c #FBE067",
"(  c #FBE068",
")  c #FBE06B",
"_  c #FBE06C",
"`  c #FBE06D",
"'  c #FBE06E",
"]  c #FBE070",
"[  c #FBE071",
"{  c #FBE073",
"}  c #FBE074",
"|  c #FAE176",
" . c #FBE177",
".. c #FAE178",
"X. c #FAE17A",
"o. c #FBE17A",
"O. c #FAE17C",
"+. c #FAE17E",
"@. c #FAE17F",
"#. c #FAE181",
"$. c #FAE281",
"%. c #FAE283",
"&. c #FAE285",
"*. c #FAE286",
"=. c #FAE287",
"-. c #FAE288",
";. c #FAE289",
":. c #FAE38D",
">. c #F9E390",
",. c #F9E391",
"<. c #FAE390",
"1. c #F9E393",
"2. c #FAE395",
"3. c #F9E397",
"4. c #F9E399",
"5. c #F9E499",
"6. c #F9E49A",
"7. c #F9E49B",
"8. c #F9E49F",
"9. c #F9E4A0",
"0. c #F9E4A2",
"q. c #F9E5A6",
"w. c #F9E5A7",
"e. c #F9E5A8",
"r. c #F8E5AA",
"t. c #F9E5AA",
"y. c #F8E5AC",
"u. c #F8E5AD",
"i. c #F8E5AF",
"p. c #F8E6AF",
"a. c #F8E5B0",
"s. c #F8E6B1",
"d. c #F8E5B4",
"f. c #F8E6B4",
"g. c #F8E6B5",
"h. c #F8E6B6",
"j. c #F8E6B7",
"k. c #F8E6B9",
"l. c #F8E6BA",
"z. c #F8E6BB",
"x. c #F8E7BE",
"c. c #F8E6BF",
"v. c #F8E7BF",
"b. c #F7E7C6",
"n. c #F7E7C7",
"m. c #F8E7C0",
"M. c #F8E7C1",
"N. c #F8E7C2",
"B. c #F8E7C4",
"V. c #F8E7C7",
"C. c #F7E7C8",
"Z. c #F7E7C9",
"A. c #F7E7CB",
"S. c #F7E8CA",
"D. c #F7E8CB",
"F. c #F7E8CC",
"G. c #F7E8CD",
"H. c #F7E8CE",
"J. c #F7E8CF",
"K. c #F7E8D0",
"L. c #F7E8D1",
"P. c #F7E8D2",
"I. c #F7E8D4",
"U. c #F7E8D5",
"Y. c #F7E9D6",
"T. c #F7E9D7",
"R. c #F7E9DA",
"E. c #F7E9DB",
"W. c #F6E9DE",
"Q. c #F6E9DF",
"!. c #F6E9E0",
"~. c #F6E9E1",
"^. c #F6E9E2",
"/. c #F6E9E3",
"(. c #F6EAE3",
"). c #F6E9E4",
"_. c #F6EAE4",
"`. c #F6EAE5",
"'. c #F6EAE6",
"]. c #F6EAE7",
"[. c #F6EAE8",
"{. c #F6EAE9",
"}. c #F6EAEA",
/* pixels */
"                                                                                                                                                                                                                                                ",
"                                                                                                                                                                                                                                                ",
"                                                                                                                                                                                                                                                ",
"                                                                                                                                                                                                                                                ",
"                                                                                                                                                                                                                                                ",
"                                                                                                                                                                                                                                                ",
"                                                                                                                                                                                                                                                ",
"                                                                                                                                                                                                                                                ",
"                                                                          . . . . . . . . . .                                                                                                                                                   ",
"                                                                    . O d D ^ &.1.8.5.-.) V : . .                                                                                                                                               ",
"                                                                $ h ( y.H.!.{.}.}.}.}.}.}.R.f.L % .                                                                                                                                             ",
"                                                              9 X.I.}.}.}.}.}.}.}.}.}.}.}.}.}.`.} & .                                                                                                                                           ",
"                                                            J S.}.}.}.}.}.}.}.}.}.}.}.}.}.}.}.}.[.{ o . . . . . .                                                                                                                               ",
"                                                          ] R.}.}.}.}.}.}.}.}.}.}.}.}.}.}.}.}.}.}.I.O.[ / P x y & . .             . . . . + % - - % + . . . . .                                                                                 ",
"                                                        n I.}.}.}.}.}.}.}.}.}.}.}.}.}.}.}.}.}.}.}.}.}.}.}.}.`.V.8.K - . .   . . o q F ) &.1.6.9.9.6.1.&.) F q o . . .                                                                           ",
"                                                    X u 4.}.}.}.}.}.}.}.}.}.}.}.}.}.}.}.}.}.}.}.}.}.}.}.}.}.}.}.}.}.K.[ 4 e L 3.J.}.}.}.}.}.}.}.}.}.}.}.}.}.}.J.3.L e . .                                                                       ",
"                                                  b >.D.).}.}.}.}.}.}.}.}.}.}.}.}.}.}.}.}.}.}.}.}.}.}.}.}.}.}.}.}.}.}.].c.b./.}.}.}.}.}.}.}.}.}.}.}.}.}.}.}.}.}.}./.B...q o o < 8 < O . .                                                       ",
"                                                ^ L.}.}.}.}.}.}.}.}.}.}.}.}.}.}.}.}.}.}.}.}.}.}.}.}.}.}.}.}.}.}.}.}.}.}.}.}.}.}.}.}.}.}.}.}.}.}.}.}.}.}.}.}.}.}.}.}.}.}.v.R +.t.h.u.=.c . .                                                     ",
"                                              | {.}.}.}.}.}.}.}.}.}.}.}.}.}.}.}.}.}.}.}.}.}.}.}.}.}.}.}.}.}.}.}.}.}.}.}.}.}.}.}.}.}.}.}.}.}.}.}.}.}.}.}.}.}.}.}.}.}.}.}.}.}.}.}.}.}.}._.2.1 .                                                   ",
"                                              J.}.}.}.}.}.}.}.}.}.}.}.}.}.}.}.}.}.}.}.}.}.}.}.}.}.}.}.}.}.}.}.}.}.}.}.}.}.}.}.}.}.}.}.}.}.}.}.}.}.}.}.}.}.}.}.}.}.}.}.}.}.}.}.}.}.}.}.}.{.<.1 .                                                 ",
"                                          . O.}.}.}.}.}.}.}.}.}.}.}.}.}.}.}.}.}.}.}.}.}.}.}.}.}.}.}.}.}.}.}.}.}.}.}.}.}.}.}.}.}.}.}.}.}.}.}.}.}.}.}.}.}.}.}.}.}.}.}.}.}.}.}.}.}.}.}.}.}.}.`.T .                                                 ",
"                                      . , D A.}.}.}.}.}.}.}.}.}.}.}.}.}.}.}.}.}.}.}.}.}.}.}.}.}.}.}.}.}.}.}.}.}.}.}.}.}.}.}.}.}.}.}.}.}.}.}.}.}.}.}.}.}.}.}.}.}.}.}.}.}.}.}.}.}.}.}.}.}.}.}.N.6                                                 ",
"                                    u ^ k.W.{.}.}.}.}.}.}.}.}.}.}.}.}.}.}.}.}.}.}.}.}.}.}.}.}.}.}.}.}.}.}.}.}.}.}.}.}.}.}.}.}.}.}.}.}.}.}.}.}.}.}.}.}.}.}.}.}.}.}.}.}.}.}.}.}.}.}.}.}.}.}.}.R.C                                                 ",
"                                  H N.[.}.}.}.}.}.}.}.}.}.}.}.}.}.}.}.}.}.}.}.}.}.}.}.}.}.}.}.}.}.}.}.}.}.}.}.}.}.}.}.}.}.}.}.}.}.}.}.}.}.}.}.}.}.}.}.}.}.}.}.}.}.}.}.}.}.}.}.}.}.}.}.}.}.}.].Y                                                 ",
"                                3.{.}.}.}.}.}.}.}.}.}.}.}.}.}.}.}.}.}.}.}.}.}.}.}.}.}.}.}.}.}.}.}.}.}.}.}.}.}.}.}.}.}.}.}.}.}.}.}.}.}.}.}.}.}.}.}.}.}.}.}.}.}.}.}.}.}.}.}.}.}.}.}.}.}.}.}.}.{.R                                                 ",
"                              a.`.}.}.}.}.}.}.}.}.}.}.}.}.}.}.}.}.}.}.}.}.}.}.}.}.}.}.}.}.}.}.}.}.}.}.}.}.}.}.}.}.}.}.}.}.}.}.}.}.}.}.}.}.}.}.}.}.}.}.}.}.}.}.}.}.}.}.}.}.}.}.}.}.}.}.}.}.}.!.'                                                 ",
"                            J ].}.}.}.}.}.}.}.}.}.}.}.}.}.}.}.}.}.}.}.}.}.}.}.}.}.}.}.}.}.}.}.}.}.}.}.}.}.}.}.}.}.}.}.}.}.}.}.}.}.}.}.}.}.}.}.}.}.}.}.}.}.}.}.}.}.}.}.}.}.}.}.}.}.}.}.}.}.}.K.                                                  ",
"                            $.}.}.}.}.}.}.}.}.}.}.}.}.}.}.}.}.}.}.}.}.}.}.}.}.}.}.}.}.}.}.}.}.}.}.}.}.}.}.}.}.}.}.}.}.}.}.}.}.}.}.}.}.}.}.}.}.}.}.}.}.}.}.}.}.}.}.}.}.}.}.}.}.}.}.}.}.}.}.}.%..                                                 ",
"                          . #.}.}.}.}.}.}.}.}.}.}.}.}.}.}.}.}.}.}.}.}.}.}.}.}.}.}.}.}.}.}.}.}.}.}.}.}.}.}.}.}.}.}.}.}.}.}.}.}.}.}.}.}.}.}.}.}.}.}.}.}.}.}.}.}.}.}.}.}.}.}.}.}.}.}.}.}.}.}.}.t.g .                                               ",
"                          . S }.}.}.}.}.}.}.}.}.}.}.}.}.}.}.}.}.}.}.}.}.}.}.}.}.}.}.}.}.}.}.}.}.}.}.}.}.}.}.}.}.}.}.}.}.}.}.}.}.}.}.}.}.}.}.}.}.}.}.}.}.}.}.}.}.}.}.}.}.}.}.}.}.}.}.}.}.}.}.}.C.l .                                             ",
"                          . . 6.].}.}.}.}.}.}.}.}.}.}.}.}.}.}.}.}.}.}.}.}.}.}.}.}.}.}.}.}.}.}.}.}.}.}.}.}.}.}.}.}.}.}.}.}.}.}.}.}.}.}.}.}.}.}.}.}.}.}.}.}.}.}.}.}.}.}.}.}.}.}.}.}.}.}.}.}.}.}.}.F.l .                                           ",
"                            . 0 7./.}.}.}.}.}.}.}.}.}.}.}.}.}.}.}.}.}.}.}.}.}.}.}.}.}.}.}.}.}.}.}.}.}.}.}.}.}.}.}.}.}.}.}.}.}.}.}.}.}.}.}.}.}.}.}.}.}.}.}.}.}.}.}.}.}.}.}.}.}.}.}.}.}.}.}.}.}.}.}.3.@                                           ",
"                              . 1 -.}.}.}.}.}.}.}.}.}.}.}.}.}.}.}.}.}.}.}.}.}.}.}.}.}.}.}.}.}.}.}.}.}.}.}.}.}.}.}.}.}.}.}.}.}.}.}.}.}.}.}.}.}.}.}.}.}.}.}.}.}.}.}.}.}.}.}.}.}.}.}.}.}.}.}.}.}.}.}.P.l                                           ",
"                                .  .}.}.}.}.}.}.}.}.}.}.}.}.}.}.}.}.}.}.}.}.}.}.}.}.}.}.}.}.}.}.}.}.}.}.}.}.}.}.}.}.}.}.}.}.}.}.}.}.}.}.}.}.}.}.}.}.}.}.}.}.}.}.}.}.}.}.}.}.}.}.}.}.}.}.}.}.}.}.}.'.I                                           ",
"                                . ;.}.}.}.}.}.}.}.}.}.}.}.}.}.}.}.}.}.}.}.}.}.}.}.}.}.}.}.}.}.}.}.}.}.}.}.}.}.}.}.}.}.}.}.}.}.}.}.}.}.}.}.}.}.}.}.}.}.}.}.}.}.}.}.}.}.}.}.}.}.}.}.}.}.}.}.}.}.}.}.{.Q                                           ",
"                                . *.}.}.}.}.}.}.}.}.}.}.}.}.}.}.}.}.}.}.}.}.}.}.}.}.}.}.}.}.}.}.}.}.}.}.}.}.}.}.}.}.}.}.}.}.}.}.}.}.}.}.}.}.}.}.}.}.}.}.}.}.}.}.}.}.}.}.}.}.}.}.}.}.}.}.}.}.}.}.}.!.X.                                          ",
"                                . ~ }.}.}.}.}.}.}.}.}.}.}.}.}.}.}.}.}.}.}.}.}.}.}.}.}.}.}.}.}.}.}.}.}.}.}.}.}.}.}.}.}.}.}.}.}.}.}.}.}.}.}.}.}.}.}.}.}.}.}.}.}.}.}.}.}.}.}.}.}.}.}.}.}.}.}.}.}.}.}.'.                                            ",
"                                . j [.}.}.}.}.}.}.}.}.}.}.}.}.}.}.}.}.}.}.}.}.}.}.}.}.}.}.}.}.}.}.}.}.}.}.}.}.}.}.}.}.}.}.}.}.}.}.}.}.}.}.}.}.}.}.}.}.}.}.}.}.}.}.}.}.}.}.}.}.}.}.}.}.}.}.}.}.}.}.                                              ",
"                                . X l.}.}.}.}.}.}.}.}.}.}.}.}.}.}.}.}.}.}.}.}.}.}.}.}.}.}.}.}.}.}.}.}.}.}.}.}.}.}.}.}.}.}.}.}.}.}.}.}.}.}.}.}.}.}.}.}.}.}.}.}.}.}.}.}.}.}.}.}.}.}.}.}.}.}.}.}.}.}.                                              ",
"                                  . B Y.}.}.}.}.}.}.}.}.}.}.}.}.}.}.}.}.}.}.}.}.}.}.}.}.}.}.}.}.}.}.}.}.}.}.}.}.}.}.}.}.}.}.}.}.}.}.}.}.}.}.}.}.}.}.}.}.}.}.}.}.}.}.}.}.}.}.}.}.}.}.}.}.}.}.Q.d.                                                ",
"                                  . + ! T.}.}.}.}.}.}.}.}.}.}.}.}.}.}.}.}.}.}.}.}.}.}.}.}.}.}.}.}.}.}.}.}.}.}.}.}.}.}.}.}.}.}.}.}.}.}.}.}.}.}.}.}.}.}.}.}.}.}.}.}.}.}.}.}.}.}.}.}.}.}.{.E.s.'                                                   ",
"                                    . + C g.'.}.^.z.{.}.}.}.}.}.}.}.}.}.}.}.}.}.}.}.}.}.}.}.}.}.}.}.}.}.}.}.}.}.}.}.}.}.}.}.}.}.}.}.}.}.}.}.}.}.}.}.}.}.}.}.}.}.}.}.}.}.}.}.}.}.}.(.k.#.A                                                       ",
"                                      . . . = q # 5 i.}.}.}.}.}.}.}.}.}.}.}.}.}.}.}.}.}.}.}.}.}.}.}.}.}.}.}.}.}.}.}.}.}.}.}.}.}.}.}.}.}.}.}.}.}.}.}.}.}.}.}.}.}.}.}.}.}.}.W.U t 1 O .                                                           ",
"                                                  X c I.}.}.}.}.}.}.}.}.}.}.}.}.}.}.}.}.}.}.}.}.}.}.}.}.}.}.}.}.}.}.}.}.}.}.}.}.}.}.}.}.}.}.}.}.}.}.}.}.}.}.}.}.}.}.}.}.}./.                                                                    ",
"                                                  . . C B.}.}.}.}.}.}.}.}.}.}.}.}.}.}.}.}.}.}.}.}.}.}.}.}.}.}.}.}.}.}.}.}.}.}.}.}.}.}.}.}.}.}.}.}.I.G.}.}.}.}.}.}.}.}.}.}.                                                                      ",
"                                                    . . 3 [ n.].}.}.}.}.}.}.}.}.}.}.H.-.M X.i.U.}.}.}.}.}.}.`.V.8.b.}.}.}.}.}.}.}.}.}.}.}.}.}.}.R.M u e.~.}.}.}.}.}.[.D.p.                                                                      ",
"                                                        . o r G :.z.C.G.L.H.Z.x.5.W g - . o 2 s Z E _ [ / P v p * z j.[.}.}.}.}.}.}.}.}.}.}.{.E.  % . > N o.w.g.a.,.W m                                                                         ",
"                                                            . . . # 0 s k f r * .             . . . . . .       . . u %._.}.}.}.}.}.}.}.}.'.q.        . . . . . . .                                                                             ",
"                                                                                                                    . . w ` 0.m.D.H.M.r.@.z                                                                                                     ",
"                                                                                                                        . X ; w i a y 7                                                                                                         ",
"                                                                                                                                                                                                                                                ",
"                                                                                                                                                                                                                                                ",
"                                                                                                                                                                                                                                                ",
"                                                                                                                                                                                                                                                ",
"                                                                                                                                                                                                                                                ",
"                                                                                                                                                                                                                                                ",
"                                                                                                                                                                                                                                                ",
"                                                                                                                                                                                                                                                ",
"                                                                                                                                                                                                                                                ",
"                                                                                                                                                                                                                                                "
};
